<svg xmlns="http://www.w3.org/2000/svg" width="900" height="389" viewBox="0 0 900 389" font-family="system-ui" font-size="11">
<rect width="900" height="389" fill="#fbfbfa"/>
<rect x="61.0" y="61.0" width="777.9" height="266.9" fill="#eceff1" stroke="#b0bec5"/>
<text x="67.0" y="77.0" fill="#78909c">bench C</text>
<circle cx="451.7" cy="194.5" r="76.7" fill="none" stroke="#cfd8dc" stroke-dasharray="4 4"/>
<circle cx="451.7" cy="194.5" r="132.6" fill="none" stroke="#90a4ae" stroke-dasharray="4 4"/>
<circle cx="451.7" cy="194.5" r="7" fill="#37474f"/>
<text x="461.7" y="186.5" font-weight="600">ur5e_C</text>
<circle cx="494.5" cy="102.7" r="5" fill="#b8860b"/>
<text x="501.5" y="106.7" fill="#263238">0·balance</text>
<circle cx="468.5" cy="94.7" r="5" fill="#b8860b"/>
<text x="475.5" y="98.7" fill="#263238">1·shaker_grinder</text>
<circle cx="441.3" cy="93.8" r="5" fill="#b8860b"/>
<text x="448.3" y="97.8" fill="#263238">2·xrd_prep</text>
<circle cx="409.2" cy="85.6" r="5" fill="#c0392b"/>
<text x="416.2" y="89.6" fill="#263238">3·xrd</text>
<circle cx="403.6" cy="130.3" r="5" fill="#2e6da4"/>
<text x="410.6" y="134.3" fill="#263238">4·storage_rack</text>
<circle cx="388.3" cy="145.5" r="5" fill="#2e6da4"/>
<text x="395.3" y="149.5" fill="#263238">5·waste</text>
<circle cx="377.4" cy="164.1" r="5" fill="#2e6da4"/>
<text x="384.4" y="168.1" fill="#263238">6·crucible</text>
<circle cx="372.0" cy="184.9" r="5" fill="#2e6da4"/>
<text x="379.0" y="188.9" fill="#263238">7·tongs</text>
<circle cx="372.4" cy="206.5" r="5" fill="#2e6da4"/>
<text x="379.4" y="210.5" fill="#263238">8·funnel</text>
<circle cx="378.5" cy="227.3" r="5" fill="#2e6da4"/>
<text x="385.5" y="231.3" fill="#263238">9·vial</text>
<circle cx="389.8" cy="245.6" r="5" fill="#2e6da4"/>
<text x="396.8" y="249.6" fill="#263238">10·xrd_holder</text>
<circle cx="405.7" cy="260.2" r="5" fill="#2e6da4"/>
<text x="412.7" y="264.2" fill="#263238">11·acrylic_disc</text>
<text x="10" y="18" font-weight="700">wf02_powder_recovery_xrd</text>
</svg>